<svg width="1440" height="296" viewBox="0 0 1440 296" fill="none" xmlns="http://www.w3.org/2000/svg">
<g clip-path="url(#clip0_401_609)">
<rect width="1440" height="296" fill="#0B1B2B"/>
<g filter="url(#filter0_f_401_609)">
<circle cx="1355.07" cy="42.9365" r="77.6256" transform="rotate(15 1355.07 42.9365)" fill="#14589C"/>
</g>
<rect x="212" y="125" width="69" height="3" rx="1.5" fill="#1562AF" fill-opacity="0.14"/>
<rect x="99" y="125" width="106" height="3" rx="1.5" fill="#1562AF" fill-opacity="0.14"/>
<rect y="125" width="92" height="3" rx="1.5" fill="#1562AF" fill-opacity="0.14"/>
<rect x="287" y="125" width="77" height="3" rx="1.5" fill="#1562AF" fill-opacity="0.34"/>
<rect x="328" y="136" width="36" height="3" rx="1.5" fill="#1562AF" fill-opacity="0.14"/>
<rect x="184" y="136" width="137" height="3" rx="1.5" fill="#1562AF" fill-opacity="0.14"/>
<rect x="72" y="136" width="105" height="3" rx="1.5" fill="#1562AF" fill-opacity="0.34"/>
<rect y="136" width="65" height="3" rx="1.5" fill="#1562AF" fill-opacity="0.14"/>
<rect y="70" width="144" height="3" rx="1.5" fill="#1562AF" fill-opacity="0.14"/>
<rect x="151" y="70" width="136" height="3" rx="1.5" fill="#1562AF" fill-opacity="0.34"/>
<rect width="46" height="3" rx="1.5" transform="matrix(-1 0 0 1 340 70)" fill="#1562AF" fill-opacity="0.14"/>
<rect x="122" y="81" width="111" height="3" rx="1.5" fill="#1562AF" fill-opacity="0.14"/>
<rect x="122" y="222" width="111" height="3" rx="1.5" fill="#1562AF" fill-opacity="0.14"/>
<rect y="81" width="115" height="3" rx="1.5" fill="#1562AF" fill-opacity="0.34"/>
<rect y="222" width="115" height="3" rx="1.5" fill="#1562AF" fill-opacity="0.34"/>
<rect x="275" y="81" width="28" height="3" rx="1.5" fill="#1562AF" fill-opacity="0.34"/>
<rect x="240" y="81" width="28" height="3" rx="1.5" fill="#1562AF" fill-opacity="0.14"/>
<rect x="240" y="222" width="37" height="3" rx="1.5" fill="#1562AF" fill-opacity="0.14"/>
<rect x="310" y="81" width="83" height="3" rx="1.5" fill="#1562AF" fill-opacity="0.14"/>
<rect x="284" y="92" width="89" height="3" rx="1.5" fill="#1562AF" fill-opacity="0.14"/>
<rect x="284" y="233" width="19" height="3" rx="1.5" fill="#1562AF" fill-opacity="0.14"/>
<rect x="134" y="92" width="143" height="3" rx="1.5" fill="#1562AF" fill-opacity="0.34"/>
<rect x="134" y="233" width="143" height="3" rx="1.5" fill="#1562AF" fill-opacity="0.34"/>
<rect x="95" y="92" width="32" height="3" rx="1.5" fill="#1562AF" fill-opacity="0.14"/>
<rect x="95" y="233" width="32" height="3" rx="1.5" fill="#1562AF" fill-opacity="0.14"/>
<rect y="92" width="88" height="3" rx="1.5" fill="#1562AF" fill-opacity="0.14"/>
<rect y="233" width="88" height="3" rx="1.5" fill="#1562AF" fill-opacity="0.14"/>
<rect x="349" y="103" width="60" height="3" rx="1.5" fill="#1562AF" fill-opacity="0.34"/>
<rect x="201" y="103" width="142" height="3" rx="1.5" fill="#1562AF" fill-opacity="0.14"/>
<rect x="201" y="244" width="51" height="3" rx="1.5" fill="#1562AF" fill-opacity="0.14"/>
<rect x="259" y="244" width="62" height="3" rx="1.5" fill="#1562AF" fill-opacity="0.34"/>
<rect x="163" y="103" width="31" height="3" rx="1.5" fill="#1562AF" fill-opacity="0.14"/>
<rect x="106" y="103" width="51" height="3" rx="1.5" fill="#1562AF" fill-opacity="0.14"/>
<rect x="106" y="244" width="88" height="3" rx="1.5" fill="#1562AF" fill-opacity="0.14"/>
<rect x="32" y="103" width="67" height="3" rx="1.5" fill="#1562AF" fill-opacity="0.34"/>
<rect y="244" width="99" height="3" rx="1.5" fill="#1562AF" fill-opacity="0.34"/>
<rect y="103" width="25" height="3" rx="1.5" fill="#1562AF" fill-opacity="0.14"/>
<rect y="114" width="72" height="3" rx="1.5" fill="#1562AF" fill-opacity="0.34"/>
<rect y="255" width="72" height="3" rx="1.5" fill="#1562AF" fill-opacity="0.14"/>
<rect x="79" y="114" width="97" height="3" rx="1.5" fill="#1562AF" fill-opacity="0.14"/>
<rect x="79" y="255" width="55" height="3" rx="1.5" fill="#1562AF" fill-opacity="0.34"/>
<rect width="61" height="3" rx="1.5" transform="matrix(-1 0 0 1 1250 197)" fill="#1562AF" fill-opacity="0.14"/>
<rect width="94" height="3" rx="1.5" transform="matrix(-1 0 0 1 1350 197)" fill="#1562AF" fill-opacity="0.34"/>
<rect width="82" height="3" rx="1.5" transform="matrix(-1 0 0 1 1438 197)" fill="#1562AF" fill-opacity="0.14"/>
<rect width="68" height="3" rx="1.5" transform="matrix(-1 0 0 1 1183 197)" fill="#1562AF" fill-opacity="0.34"/>
<rect width="42" height="3" rx="1.5" transform="matrix(-1 0 0 1 1109 208)" fill="#1562AF" fill-opacity="0.34"/>
<rect width="32" height="3" rx="1.5" transform="matrix(-1 0 0 1 1147 208)" fill="#1562AF" fill-opacity="0.14"/>
<rect width="122" height="3" rx="1.5" transform="matrix(-1 0 0 1 1275 208)" fill="#1562AF" fill-opacity="0.14"/>
<rect width="93" height="3" rx="1.5" transform="matrix(-1 0 0 1 1374 208)" fill="#1562AF" fill-opacity="0.14"/>
<rect width="58" height="3" rx="1.5" transform="matrix(-1 0 0 1 1438 208)" fill="#1562AF" fill-opacity="0.34"/>
<rect width="118" height="3" rx="1.5" transform="matrix(-1 0 0 1 1438 30)" fill="#1562AF" fill-opacity="0.14"/>
<rect width="128" height="3" rx="1.5" transform="matrix(-1 0 0 1 1438 219)" fill="#1562AF" fill-opacity="0.14"/>
<rect width="112" height="3" rx="1.5" transform="matrix(-1 0 0 1 1314 30)" fill="#1562AF" fill-opacity="0.34"/>
<rect width="121" height="3" rx="1.5" transform="matrix(-1 0 0 1 1257 219)" fill="#1562AF" fill-opacity="0.14"/>
<rect x="1158" y="30" width="38" height="3" rx="1.5" fill="#1562AF" fill-opacity="0.14"/>
<rect x="1263" y="219" width="41" height="3" rx="1.5" fill="#1562AF" fill-opacity="0.34"/>
<rect width="92" height="3" rx="1.5" transform="matrix(-1 0 0 1 1338 41)" fill="#1562AF" fill-opacity="0.14"/>
<rect width="99" height="3" rx="1.5" transform="matrix(-1 0 0 1 1330 230)" fill="#1562AF" fill-opacity="0.14"/>
<rect width="94" height="3" rx="1.5" transform="matrix(-1 0 0 1 1438 41)" fill="#1562AF" fill-opacity="0.34"/>
<rect width="102" height="3" rx="1.5" transform="matrix(-1 0 0 1 1438 230)" fill="#1562AF" fill-opacity="0.34"/>
<rect width="23" height="3" rx="1.5" transform="matrix(-1 0 0 1 1212 41)" fill="#1562AF" fill-opacity="0.34"/>
<rect width="23" height="3" rx="1.5" transform="matrix(-1 0 0 1 1241 41)" fill="#1562AF" fill-opacity="0.14"/>
<rect width="62" height="3" rx="1.5" transform="matrix(-1 0 0 1 1225 230)" fill="#1562AF" fill-opacity="0.34"/>
<rect width="68" height="3" rx="1.5" transform="matrix(-1 0 0 1 1183 41)" fill="#1562AF" fill-opacity="0.14"/>
<rect width="79" height="3" rx="1.5" transform="matrix(-1 0 0 1 1186 84)" fill="#1562AF" fill-opacity="0.14"/>
<rect width="79" height="3" rx="1.5" transform="matrix(-1 0 0 1 1186 241)" fill="#1562AF" fill-opacity="0.34"/>
<rect width="127" height="3" rx="1.5" transform="matrix(-1 0 0 1 1319 84)" fill="#1562AF" fill-opacity="0.14"/>
<rect width="127" height="3" rx="1.5" transform="matrix(-1 0 0 1 1319 241)" fill="#1562AF" fill-opacity="0.14"/>
<rect width="29" height="3" rx="1.5" transform="matrix(-1 0 0 1 1354 84)" fill="#1562AF" fill-opacity="0.34"/>
<rect width="29" height="3" rx="1.5" transform="matrix(-1 0 0 1 1354 241)" fill="#1562AF" fill-opacity="0.34"/>
<rect width="78" height="3" rx="1.5" transform="matrix(-1 0 0 1 1438 84)" fill="#1562AF" fill-opacity="0.14"/>
<rect width="78" height="3" rx="1.5" transform="matrix(-1 0 0 1 1438 241)" fill="#1562AF" fill-opacity="0.14"/>
<rect width="53" height="3" rx="1.5" transform="matrix(-1 0 0 1 1128 95)" fill="#1562AF" fill-opacity="0.34"/>
<rect width="53" height="3" rx="1.5" transform="matrix(-1 0 0 1 1128 252)" fill="#1562AF" fill-opacity="0.14"/>
<rect width="126" height="3" rx="1.5" transform="matrix(-1 0 0 1 1260 95)" fill="#1562AF" fill-opacity="0.14"/>
<rect width="126" height="3" rx="1.5" transform="matrix(-1 0 0 1 1260 252)" fill="#1562AF" fill-opacity="0.14"/>
<rect width="27" height="3" rx="1.5" transform="matrix(-1 0 0 1 1293 95)" fill="#1562AF" fill-opacity="0.34"/>
<rect width="45" height="3" rx="1.5" transform="matrix(-1 0 0 1 1344 95)" fill="#1562AF" fill-opacity="0.14"/>
<rect width="78" height="3" rx="1.5" transform="matrix(-1 0 0 1 1344 252)" fill="#1562AF" fill-opacity="0.34"/>
<rect width="60" height="3" rx="1.5" transform="matrix(-1 0 0 1 1410 95)" fill="#1562AF" fill-opacity="0.14"/>
<rect width="88" height="3" rx="1.5" transform="matrix(-1 0 0 1 1438 252)" fill="#1562AF" fill-opacity="0.14"/>
<rect width="22" height="3" rx="1.5" transform="matrix(-1 0 0 1 1438 95)" fill="#1562AF" fill-opacity="0.14"/>
<rect width="64" height="3" rx="1.5" transform="matrix(-1 0 0 1 1438 106)" fill="#1562AF" fill-opacity="0.34"/>
<rect width="64" height="3" rx="1.5" transform="matrix(-1 0 0 1 1438 263)" fill="#1562AF" fill-opacity="0.34"/>
<rect width="86" height="3" rx="1.5" transform="matrix(-1 0 0 1 1368 106)" fill="#1562AF" fill-opacity="0.14"/>
<rect width="154" height="3" rx="1.5" transform="matrix(-1 0 0 1 1368 263)" fill="#1562AF" fill-opacity="0.14"/>
<g filter="url(#filter1_f_401_609)">
<rect x="272" y="235" width="891" height="52" fill="#14589C"/>
</g>
<g clip-path="url(#clip1_401_609)">
<path d="M716.235 82.7646L716.235 82.7647C716.919 83.4483 716.919 84.5516 716.235 85.2353L716.235 85.2353L701.238 100.235C700.554 100.919 699.446 100.919 698.763 100.235C698.079 99.5517 698.079 98.4483 698.763 97.7646L698.763 97.7646L711.991 84.5302L712.521 83.9999L711.991 83.4697L698.763 70.2377C698.763 70.2377 698.763 70.2377 698.763 70.2377C698.079 69.5541 698.079 68.4462 698.762 67.7625C698.762 67.7625 698.762 67.7625 698.762 67.7624C698.762 67.7624 698.763 67.7623 698.763 67.7623C699.446 67.0795 700.554 67.0795 701.238 67.7625C701.238 67.7625 701.238 67.7625 701.238 67.7626L716.235 82.7646ZM740 97.25C740.969 97.25 741.75 98.0314 741.75 99C741.75 99.9686 740.969 100.75 740 100.75H717.5C716.531 100.75 715.75 99.9686 715.75 99C715.75 98.0314 716.531 97.25 717.5 97.25H740Z" stroke="#3294F8" stroke-width="1.5"/>
</g>
<path d="M660.486 142.297L660.471 149.786C659.36 150.799 657.113 151.303 653.73 151.296C653.066 151.295 652.48 151.266 651.973 151.211C651.473 151.155 651.012 151.084 650.59 150.997C650.176 150.91 649.821 150.765 649.525 150.561C649.228 150.35 648.967 150.138 648.741 149.927C648.515 149.716 648.332 149.411 648.192 149.012C648.052 148.605 647.935 148.215 647.842 147.839C647.757 147.464 647.692 146.96 647.646 146.327C647.608 145.694 647.582 145.089 647.568 144.511C647.553 143.933 647.547 143.19 647.548 142.284C647.55 141.511 647.555 140.851 647.564 140.304C647.581 139.757 647.609 139.198 647.649 138.628C647.697 138.058 647.757 137.585 647.828 137.211C647.907 136.828 648.009 136.445 648.135 136.063C648.268 135.672 648.421 135.36 648.593 135.126C648.766 134.884 648.981 134.646 649.239 134.412C649.498 134.179 649.783 133.999 650.096 133.875C650.416 133.751 650.788 133.638 651.21 133.537C651.632 133.437 652.093 133.371 652.593 133.341C653.093 133.303 653.659 133.284 654.292 133.285C654.331 133.286 654.39 133.286 654.468 133.286C655.015 133.287 655.429 133.292 655.71 133.3C655.991 133.308 656.37 133.34 656.847 133.396C657.331 133.444 657.702 133.522 657.96 133.632C658.217 133.734 658.514 133.891 658.849 134.103C659.185 134.307 659.434 134.561 659.598 134.866C659.761 135.163 659.905 135.542 660.029 136.004C660.153 136.465 660.215 136.996 660.214 137.598C660.213 137.738 660.205 137.934 660.189 138.184L658.091 138.578L657.966 136.269C657.952 135.769 657.667 135.448 657.113 135.306C656.558 135.157 655.508 135.081 653.961 135.078C652.906 135.076 652.109 135.141 651.57 135.272C651.03 135.396 650.655 135.591 650.444 135.856C650.232 136.121 650.102 136.516 650.055 137.039C649.981 138.64 649.943 140.281 649.94 141.961C649.936 143.648 649.968 145.289 650.036 146.883C650.073 147.727 650.138 148.274 650.232 148.524C650.379 148.907 650.719 149.165 651.25 149.299C651.749 149.425 652.62 149.489 653.863 149.492C656.535 149.497 658.015 149.32 658.305 148.961C658.299 148.156 658.298 146.524 658.303 144.063L655.35 144.057L655.154 142.287L660.486 142.297ZM666.41 151.039L664.032 151.035L664.065 133.574L666.444 133.578L666.41 151.039ZM679.905 135.409L675.347 135.4L675.317 151.056L672.938 151.052L672.968 135.396L668.503 135.387L668.507 133.582L679.909 133.604L679.905 135.409ZM694.43 151.093L692.051 151.089L692.066 143.073L684.262 143.058L684.246 151.074L681.867 151.069L681.901 133.608L684.28 133.613L684.265 141.206L692.07 141.221L692.085 133.628L694.464 133.632L694.43 151.093ZM711.374 133.665L711.353 144.598C711.351 145.536 711.306 146.34 711.219 147.012C711.14 147.684 710.994 148.281 710.782 148.804C710.57 149.32 710.304 149.741 709.983 150.068C709.67 150.388 709.255 150.653 708.739 150.863C708.231 151.065 707.66 151.205 707.027 151.281C706.394 151.358 705.629 151.396 704.73 151.394C703.863 151.393 703.125 151.356 702.516 151.285C701.906 151.213 701.344 151.083 700.829 150.895C700.314 150.698 699.896 150.444 699.576 150.13C699.264 149.81 698.996 149.395 698.77 148.887C698.545 148.371 698.386 147.765 698.293 147.069C698.209 146.374 698.167 145.542 698.169 144.573L698.19 133.639L700.569 133.644L700.547 144.882C700.546 145.531 700.545 145.999 700.545 146.289C700.552 146.578 700.575 146.933 700.613 147.355C700.651 147.769 700.701 148.054 700.764 148.211C700.826 148.359 700.927 148.547 701.067 148.774C701.215 149.001 701.379 149.146 701.559 149.208C701.746 149.264 702 149.334 702.32 149.421C702.64 149.507 702.984 149.559 703.351 149.575C703.726 149.584 704.191 149.589 704.745 149.59C705.402 149.591 705.949 149.572 706.386 149.534C706.831 149.496 707.218 149.419 707.547 149.302C707.875 149.185 708.125 149.053 708.297 148.905C708.477 148.749 708.619 148.523 708.721 148.226C708.831 147.929 708.901 147.621 708.933 147.301C708.965 146.981 708.982 146.555 708.983 146.024L708.995 133.66L711.374 133.665ZM727.393 146.129C727.384 146.621 727.364 147.055 727.332 147.43C727.307 147.797 727.264 148.145 727.201 148.473C727.138 148.801 727.071 149.078 727 149.304C726.929 149.531 726.815 149.745 726.659 149.948C726.51 150.143 726.365 150.303 726.224 150.428C726.083 150.545 725.88 150.654 725.614 150.755C725.356 150.848 725.106 150.918 724.864 150.964C724.622 151.011 724.297 151.049 723.891 151.08C723.492 151.11 723.106 151.129 722.731 151.136C722.363 151.143 721.899 151.146 721.336 151.145L715.078 151.133L715.112 133.672L721.745 133.685C722.628 133.686 723.358 133.735 723.936 133.83C724.522 133.917 725.037 134.078 725.482 134.313C725.935 134.548 726.262 134.881 726.464 135.311C726.667 135.741 726.771 136.288 726.778 136.952L726.787 138.218C726.786 138.749 726.765 139.183 726.726 139.519C726.686 139.854 726.615 140.159 726.513 140.432C726.419 140.705 726.274 140.92 726.078 141.076C725.883 141.232 725.644 141.364 725.363 141.473C725.089 141.574 724.733 141.663 724.296 141.74C724.827 141.796 725.284 141.914 725.666 142.095C726.049 142.275 726.349 142.491 726.567 142.741C726.793 142.991 726.968 143.308 727.093 143.691C727.217 144.074 727.298 144.449 727.337 144.817C727.375 145.184 727.394 145.621 727.393 146.129ZM724.467 137.71C724.468 137.694 724.468 137.67 724.468 137.639C724.468 137.311 724.469 137.081 724.469 136.948C724.469 136.807 724.446 136.639 724.4 136.444C724.361 136.241 724.318 136.108 724.271 136.045C724.233 135.983 724.135 135.9 723.979 135.798C723.831 135.689 723.682 135.626 723.534 135.61C723.386 135.586 723.151 135.559 722.831 135.527C722.519 135.487 722.206 135.467 721.894 135.466C721.581 135.466 721.155 135.465 720.616 135.464L717.464 135.458L717.453 141.059L719.809 141.064C720.832 141.066 721.66 141.04 722.293 140.987C722.926 140.925 723.395 140.825 723.7 140.685C724.013 140.537 724.216 140.381 724.31 140.217C724.412 140.053 724.463 139.835 724.464 139.561L724.467 137.71ZM725.073 145.562C725.06 144.633 725.026 144.047 724.971 143.804C724.863 143.374 724.594 143.081 724.164 142.924C723.634 142.72 722.446 142.612 720.603 142.601C720.478 142.6 720.341 142.6 720.192 142.6L717.45 142.594L717.437 149.368L721.914 149.377C722.82 149.378 723.504 149.305 723.965 149.158C724.426 149.002 724.731 148.773 724.88 148.468C725.029 148.164 725.101 147.715 725.094 147.121L725.073 145.562ZM747.549 146.168C747.54 146.66 747.52 147.094 747.488 147.469C747.464 147.836 747.42 148.183 747.357 148.511C747.294 148.839 747.227 149.117 747.156 149.343C747.085 149.57 746.972 149.784 746.815 149.987C746.666 150.182 746.521 150.342 746.38 150.467C746.24 150.584 746.036 150.692 745.77 150.794C745.512 150.887 745.262 150.957 745.02 151.003C744.778 151.049 744.453 151.088 744.047 151.118C743.649 151.149 743.262 151.168 742.887 151.175C742.52 151.182 742.055 151.185 741.492 151.184L735.235 151.172L735.268 133.711L741.901 133.724C742.784 133.725 743.514 133.774 744.092 133.868C744.678 133.955 745.193 134.117 745.638 134.352C746.091 134.587 746.418 134.92 746.62 135.35C746.823 135.78 746.927 136.327 746.934 136.991L746.943 138.257C746.942 138.788 746.922 139.222 746.882 139.557C746.842 139.893 746.771 140.198 746.669 140.471C746.575 140.744 746.43 140.959 746.234 141.115C746.039 141.271 745.8 141.403 745.519 141.512C745.245 141.613 744.89 141.702 744.452 141.779C744.983 141.835 745.44 141.953 745.822 142.133C746.205 142.314 746.505 142.529 746.723 142.78C746.949 143.03 747.125 143.347 747.249 143.73C747.373 144.113 747.454 144.488 747.493 144.855C747.531 145.223 747.55 145.66 747.549 146.168ZM744.624 137.748C744.624 137.733 744.624 137.709 744.624 137.678C744.624 137.35 744.625 137.119 744.625 136.987C744.625 136.846 744.602 136.678 744.556 136.483C744.517 136.279 744.474 136.146 744.428 136.084C744.389 136.021 744.291 135.939 744.135 135.837C743.987 135.728 743.839 135.665 743.69 135.649C743.542 135.625 743.308 135.597 742.987 135.565C742.675 135.526 742.362 135.506 742.05 135.505C741.737 135.504 741.312 135.504 740.773 135.503L737.62 135.497L737.609 141.098L739.965 141.103C740.988 141.105 741.816 141.079 742.449 141.025C743.082 140.964 743.551 140.863 743.856 140.723C744.169 140.576 744.372 140.42 744.467 140.256C744.568 140.092 744.62 139.873 744.62 139.6L744.624 137.748ZM745.23 145.601C745.216 144.671 745.182 144.085 745.128 143.843C745.019 143.413 744.75 143.12 744.321 142.963C743.79 142.758 742.603 142.651 740.759 142.639C740.634 142.639 740.497 142.639 740.349 142.639L737.606 142.633L737.593 149.407L742.07 149.415C742.976 149.417 743.66 149.344 744.121 149.197C744.582 149.041 744.888 148.811 745.037 148.507C745.186 148.203 745.257 147.753 745.25 147.16L745.23 145.601ZM759.574 151.219L750.703 151.201L750.737 133.741L753.116 133.745L753.086 149.413L759.812 149.426L759.574 151.219ZM768.796 151.518C768.117 151.516 767.511 151.499 766.98 151.467C766.457 151.435 765.973 151.356 765.527 151.23C765.082 151.112 764.7 151.002 764.38 150.9C764.067 150.797 763.783 150.606 763.525 150.324C763.276 150.034 763.069 149.788 762.906 149.584C762.742 149.373 762.602 149.029 762.486 148.552C762.369 148.068 762.284 147.657 762.23 147.321C762.176 146.977 762.13 146.45 762.093 145.739C762.063 145.028 762.044 144.419 762.038 143.911C762.039 143.403 762.04 142.669 762.042 141.708C762.044 140.551 762.077 139.591 762.141 138.825C762.205 138.06 762.328 137.349 762.509 136.693C762.697 136.037 762.941 135.522 763.238 135.147C763.544 134.773 763.954 134.454 764.47 134.189C764.994 133.916 765.6 133.734 766.288 133.642C766.983 133.541 767.831 133.492 768.831 133.494C769.776 133.496 770.585 133.544 771.257 133.639C771.928 133.734 772.522 133.904 773.037 134.147C773.56 134.382 773.977 134.68 774.289 135.04C774.609 135.392 774.87 135.857 775.072 136.436C775.274 137.014 775.409 137.663 775.478 138.382C775.555 139.093 775.592 139.96 775.59 140.984C775.585 143.874 775.538 145.777 775.45 146.69C775.299 148.253 774.937 149.369 774.366 150.04C773.763 150.758 772.738 151.209 771.293 151.393C770.605 151.478 769.773 151.519 768.796 151.518ZM770.503 135.349C770.058 135.317 769.5 135.3 768.828 135.299C768.156 135.298 767.597 135.312 767.152 135.342C766.706 135.373 766.316 135.439 765.98 135.539C765.651 135.64 765.397 135.753 765.217 135.878C765.037 136.002 764.888 136.197 764.771 136.463C764.661 136.72 764.586 136.986 764.547 137.259C764.515 137.533 764.491 137.904 764.474 138.372C764.448 139.818 764.433 141.271 764.431 142.732C764.426 144.935 764.482 146.443 764.598 147.256C764.783 148.475 765.137 149.178 765.66 149.367C766.05 149.594 767.097 149.71 768.8 149.713C770.503 149.716 771.55 149.605 771.941 149.379C772.09 149.325 772.223 149.235 772.34 149.11C772.465 148.986 772.567 148.818 772.646 148.607C772.732 148.396 772.807 148.185 772.87 147.975C772.933 147.756 772.984 147.479 773.024 147.143C773.063 146.807 773.095 146.506 773.119 146.241C773.143 145.967 773.159 145.624 773.168 145.21C773.177 144.788 773.181 144.44 773.182 144.167C773.19 143.893 773.195 143.53 773.196 143.077C773.199 141.499 773.19 139.936 773.169 138.389C773.155 137.92 773.128 137.549 773.089 137.276C773.059 137.002 772.985 136.737 772.868 136.478C772.76 136.213 772.615 136.017 772.436 135.892C772.256 135.766 771.999 135.653 771.663 135.55C771.335 135.448 770.949 135.381 770.503 135.349ZM791.618 142.55L791.604 150.038C790.493 151.051 788.246 151.555 784.863 151.548C784.199 151.547 783.613 151.519 783.105 151.463C782.605 151.407 782.144 151.336 781.723 151.249C781.309 151.163 780.954 151.017 780.657 150.814C780.361 150.602 780.099 150.391 779.873 150.179C779.647 149.968 779.464 149.663 779.324 149.264C779.184 148.858 779.068 148.467 778.975 148.092C778.89 147.717 778.824 147.213 778.779 146.58C778.741 145.947 778.715 145.341 778.7 144.763C778.686 144.185 778.679 143.443 778.681 142.537C778.682 141.763 778.688 141.103 778.696 140.556C778.713 140.009 778.742 139.451 778.782 138.88C778.83 138.31 778.889 137.838 778.96 137.463C779.039 137.08 779.141 136.698 779.267 136.315C779.401 135.925 779.554 135.612 779.726 135.378C779.898 135.137 780.114 134.899 780.372 134.665C780.63 134.431 780.916 134.252 781.228 134.127C781.549 134.003 781.92 133.89 782.342 133.79C782.764 133.689 783.225 133.623 783.726 133.593C784.226 133.555 784.792 133.537 785.425 133.538C785.464 133.538 785.522 133.538 785.601 133.538C786.147 133.539 786.562 133.544 786.843 133.552C787.124 133.561 787.503 133.593 787.979 133.648C788.464 133.696 788.835 133.775 789.092 133.885C789.35 133.987 789.646 134.144 789.982 134.355C790.317 134.559 790.567 134.813 790.73 135.118C790.894 135.416 791.038 135.795 791.162 136.256C791.286 136.717 791.347 137.248 791.346 137.85C791.346 137.991 791.338 138.186 791.322 138.436L789.223 138.83L789.099 136.521C789.084 136.021 788.8 135.701 788.245 135.559C787.691 135.409 786.64 135.333 785.093 135.33C784.039 135.328 783.242 135.393 782.702 135.525C782.163 135.649 781.788 135.843 781.576 136.109C781.365 136.374 781.235 136.768 781.187 137.291C781.114 138.893 781.075 140.533 781.072 142.213C781.069 143.901 781.101 145.541 781.168 147.135C781.206 147.979 781.271 148.526 781.364 148.776C781.512 149.159 781.851 149.418 782.382 149.551C782.882 149.677 783.753 149.742 784.995 149.744C787.667 149.749 789.148 149.572 789.438 149.214C789.431 148.409 789.431 146.776 789.435 144.315L786.482 144.309L786.286 142.539L791.618 142.55Z" fill="#3294F8"/>
</g>
<defs>
<filter id="filter0_f_401_609" x="909.427" y="-402.708" width="891.29" height="891.29" filterUnits="userSpaceOnUse" color-interpolation-filters="sRGB">
<feFlood flood-opacity="0" result="BackgroundImageFix"/>
<feBlend mode="normal" in="SourceGraphic" in2="BackgroundImageFix" result="shape"/>
<feGaussianBlur stdDeviation="184" result="effect1_foregroundBlur_401_609"/>
</filter>
<filter id="filter1_f_401_609" x="60" y="23" width="1315" height="476" filterUnits="userSpaceOnUse" color-interpolation-filters="sRGB">
<feFlood flood-opacity="0" result="BackgroundImageFix"/>
<feBlend mode="normal" in="SourceGraphic" in2="BackgroundImageFix" result="shape"/>
<feGaussianBlur stdDeviation="106" result="effect1_foregroundBlur_401_609"/>
</filter>
<clipPath id="clip0_401_609">
<rect width="1440" height="296" fill="white"/>
</clipPath>
<clipPath id="clip1_401_609">
<rect width="45" height="40" fill="white" transform="translate(697.5 64)"/>
</clipPath>
</defs>
</svg>
